<?xml version="1.0" encoding="UTF-8"?><svg id="a" xmlns="http://www.w3.org/2000/svg" viewBox="0 0 1571.69 1556.08"><defs><style>.b,.c,.d{fill:green;}.c{font-size:231.01px;}.c,.d{font-family:Montserrat-ExtraBold, Montserrat;}.d{font-size:143.71px;}</style></defs><path class="b" d="M1393.17,775.78c-.2,335.07-271.68,606.44-607.75,604.8-343.95-1.68-606.06-283.5-603.34-610.82,2.73-328.67,273.19-603.12,612.42-600.28,329.62,2.76,598.87,273.48,598.66,606.3Zm-390.54-294.72c11.42-133.97-90.4-232.89-206.15-236-52.2-1.4-99.43,14.71-139.63,48.55-58.32,49.09-82.41,112.67-76.41,188.47-130.19-54.15-245.22,18.82-283.48,111.44-20.62,49.92-22.55,101-3.95,151.88,27,73.86,81.31,117.85,156.91,137.58-91.43,105.92-62.63,246.59,30.68,314.48,97.28,70.78,239.37,50.56,309.73-66.86,74.46,121.59,212.94,129.99,297.62,75.6,44.62-28.66,75.85-67.99,90.58-118.8,22.08-76.2,3.81-144.3-47.53-204.61,121.77-29.01,192.94-144.28,164.05-259.66-26.32-105.13-147.57-199.57-292.42-142.08Z"/><text class="c" transform="translate(961.15 848.24)"><tspan x="0" y="0">F</tspan></text><text class="c" transform="translate(477.35 848.24)"><tspan x="0" y="0">I</tspan></text><text class="d" transform="translate(175.47 564.73) rotate(-67.1)"><tspan x="0" y="0">B</tspan></text><text class="d" transform="translate(217.31 466.38) rotate(-58.16)"><tspan x="0" y="0">Ệ</tspan></text><text class="d" transform="translate(265.49 386.83) rotate(-49.04)"><tspan x="0" y="0">N</tspan></text><text class="d" transform="translate(338.61 302.08) rotate(-39.12)"><tspan x="0" y="0">H</tspan></text><text class="d" transform="translate(427.49 232.4) rotate(-32.35)"><tspan x="0" y="0"> </tspan></text><text class="d" transform="translate(459.49 209.64) rotate(-25.8)"><tspan x="0" y="0">V</tspan></text><text class="d" transform="translate(554.75 165.26) rotate(-19.1)"><tspan x="0" y="0">I</tspan></text><text class="d" transform="translate(597.91 148.77) rotate(-12.8)"><tspan x="0" y="0">Ệ</tspan></text><text class="d" transform="translate(688.36 127.15) rotate(-3.65)"><tspan x="0" y="0">N</tspan></text><text class="d" transform="translate(801.22 121.94) rotate(3.03)"><tspan x="0" y="0"> </tspan></text><text class="d" transform="translate(840.5 121.9) rotate(9.57)"><tspan x="0" y="0">B</tspan></text><text class="d" transform="translate(945.77 139.22) rotate(19.26)"><tspan x="0" y="0">Ạ</tspan></text><text class="d" transform="translate(1047.57 174.65) rotate(28.62)"><tspan x="0" y="0">C</tspan></text><text class="d" transform="translate(1137.71 223.02) rotate(38.16)"><tspan x="0" y="0">H</tspan></text><text class="d" transform="translate(1225.27 294.37) rotate(44.91)"><tspan x="0" y="0"> </tspan></text><text class="d" transform="translate(1255.21 319.43) rotate(52.57)"><tspan x="0" y="0">M</tspan></text><text class="d" transform="translate(1335.36 425.34) rotate(63.34)"><tspan x="0" y="0">A</tspan></text><text class="d" transform="translate(1383.12 524.41) rotate(70.34)"><tspan x="0" y="0">I</tspan></text><text class="d" transform="translate(36.52 887.74) rotate(75.9)"><tspan x="0" y="0">Đ</tspan></text><text class="d" transform="translate(70.17 1014.38) rotate(66.87)"><tspan x="0" y="0">ơ</tspan></text><text class="d" transform="translate(111.7 1110.38) rotate(58.77)"><tspan x="0" y="0">n</tspan></text><text class="d" transform="translate(168.38 1200.35) rotate(52.92)"><tspan x="0" y="0"> </tspan></text><text class="d" transform="translate(196.49 1238.92) rotate(47.55)"><tspan x="0" y="0">v</tspan></text><text class="d" transform="translate(261.64 1308.14) rotate(42.05)"><tspan x="0" y="0">ị</tspan></text><text class="d" transform="translate(298.02 1340.72) rotate(38.48)"><tspan x="0" y="0"> </tspan></text><text class="d" transform="translate(335.34 1372.56) rotate(31.99)"><tspan x="0" y="0">H</tspan></text><text class="d" transform="translate(442.49 1437.73) rotate(23.23)"><tspan x="0" y="0">ỗ</tspan></text><text class="d" transform="translate(536.77 1476.4) rotate(17.51)"><tspan x="0" y="0"> </tspan></text><text class="d" transform="translate(581.15 1490.66) rotate(13.09)"><tspan x="0" y="0">t</tspan></text><text class="d" transform="translate(649.38 1506.24) rotate(7.79)"><tspan x="0" y="0">r</tspan></text><text class="d" transform="translate(718.35 1516.23) rotate(1.35)"><tspan x="0" y="0">ợ</tspan></text><text class="d" transform="translate(819.83 1517.04) rotate(-4.22)"><tspan x="0" y="0"> </tspan></text><text class="d" transform="translate(867 1514.13) rotate(-9.18)"><tspan x="0" y="0">s</tspan></text><text class="d" transform="translate(949.9 1499.73) rotate(-14.31)"><tspan x="0" y="0">i</tspan></text><text class="d" transform="translate(1000.22 1488.03) rotate(-20.35)"><tspan x="0" y="0">n</tspan></text><text class="d" transform="translate(1102.33 1449.45) rotate(-28.65)"><tspan x="0" y="0">h</tspan></text><text class="d" transform="translate(1194.75 1396.88) rotate(-34.51)"><tspan x="0" y="0"> </tspan></text><text class="d" transform="translate(1234 1370.58) rotate(-39.46)"><tspan x="0" y="0">s</tspan></text><text class="d" transform="translate(1300.49 1315.7) rotate(-46.39)"><tspan x="0" y="0">ả</tspan></text><text class="d" transform="translate(1368.48 1243.98) rotate(-54.2)"><tspan x="0" y="0">n</tspan></text><text class="d" transform="translate(1429.21 1156.69) rotate(-60.05)"><tspan x="0" y="0"> </tspan></text><text class="d" transform="translate(1452.11 1116.91) rotate(-63.8)"><tspan x="0" y="0">I</tspan></text><text class="d" transform="translate(1477.92 1067.55) rotate(-70.37)"><tspan x="0" y="0">V</tspan></text><text class="d" transform="translate(1516.13 957.02) rotate(-78.61)"><tspan x="0" y="0">F</tspan></text><g><path class="b" d="M982.5,579.81c-101.6,74.8-27.91,239.39-162.2,323.2-32.68,20.4-57.14,15.31-74.2,10.8-71.59-18.94-105.26-113.57-153.37-224.33,68,96,115.6,138.4,159.8,145.5,29.29,4.7,53.3-17.65,67.54-43.67,15.65-28.59,14.35-60.54,29.75-123.57,2.47-10.09,6.14-19.87,11.1-29,27.25-50.22,80.19-62.41,121.57-58.93Z"/><path class="b" d="M621.13,676.76c63.31,86.61,91.56,112,117.34,120.93,9.73,3.37,24.71,1.38,33.09-4.6,25.99-18.54,41.83-69.4,51.6-146.6-16.29,48.25-39.6,86.53-57.43,99.41-7.2,5.2-16.2,4.8-24.2,.4-24.22-13.32-34.8-49.33-61.2-72.13-3.56-3.08-11.6-7.33-18.27-9.07-14.01-3.64-35.03,2.2-40.94,11.67Z"/></g><circle class="b" cx="682.87" cy="622.21" r="31.84"/><circle class="b" cx="836.59" cy="550.1" r="58.71"/></svg>