<svg width="51" height="50" viewBox="0 0 51 50" fill="none" xmlns="http://www.w3.org/2000/svg">
<path d="M25.4114 50.0005C39.2186 50.0005 50.4114 38.8076 50.4114 25.0005C50.4114 11.1934 39.2186 0.000488281 25.4114 0.000488281C11.6043 0.000488281 0.411438 11.1934 0.411438 25.0005C0.411438 38.8076 11.6043 50.0005 25.4114 50.0005Z" fill="url(#paint0_linear_2101_848)"/>
<path d="M38.8009 21.3753C38.7919 19.7878 38.1561 18.2682 37.032 17.1472C35.9079 16.0263 34.3864 15.3948 32.7989 15.3904H17.5116C16.7197 15.3836 15.9343 15.5332 15.2003 15.8305C14.4663 16.1278 13.7983 16.567 13.2343 17.123C12.6704 17.679 12.2217 18.3408 11.914 19.0705C11.6063 19.8002 11.4456 20.5834 11.4412 21.3753V28.506C11.4411 29.2999 11.5986 30.086 11.9045 30.8187C12.2104 31.5514 12.6586 32.2162 13.2232 32.7744C13.7878 33.3327 14.4576 33.7733 15.1937 34.0709C15.9298 34.3685 16.7177 34.5171 17.5116 34.508H32.9015C34.4933 34.508 36.02 33.8756 37.1456 32.75C38.2712 31.6244 38.9035 30.0978 38.9035 28.506L38.8009 21.3753ZM29.7722 25.4793L22.9323 28.8992C22.6758 29.036 21.7524 28.8992 21.7524 28.5402V21.5292C21.7524 21.2214 22.6758 21.0333 22.9494 21.1872L29.4815 24.7611C29.7551 24.9321 30.0458 25.3254 29.7722 25.4793Z" fill="white"/>
<defs>
<linearGradient id="paint0_linear_2101_848" x1="43.0927" y1="7.31923" x2="7.73018" y2="42.6817" gradientUnits="userSpaceOnUse">
<stop stop-color="#FF0000"/>
<stop offset="1" stop-color="#850000"/>
</linearGradient>
</defs>
</svg>
