<svg width="51" height="50" viewBox="0 0 51 50" fill="none" xmlns="http://www.w3.org/2000/svg">
<path d="M50.6629 24.9865C50.6656 29.9315 49.2017 34.7663 46.4563 38.8793C43.711 42.9923 39.8075 46.1988 35.2396 48.093C30.6718 49.9873 25.6447 50.4844 20.7943 49.5213C15.9439 48.5582 11.4881 46.1783 7.99047 42.6826C4.49281 39.1869 2.11045 34.7324 1.14471 29.8825C0.178975 25.0326 0.67325 20.0053 2.56502 15.4364C4.45678 10.8675 7.66106 6.96226 11.7725 4.21464C15.884 1.46702 20.718 0.000464045 25.6631 0.000463296C28.9506 -0.0196111 32.2093 0.612865 35.2506 1.86125C38.2919 3.10963 41.0552 4.94911 43.3805 7.2731C45.7057 9.59709 47.5467 12.3594 48.7968 15.4C50.0469 18.4406 50.6811 21.699 50.6629 24.9865Z" fill="#0066FF"/>
<path d="M50.6628 24.9864C50.6715 29.879 49.2356 34.6653 46.5352 38.7452C42.6491 42.6687 37.5504 45.1628 32.0676 45.8222C26.5848 46.4816 21.0402 45.2677 16.3346 42.3775C13.7617 43.7534 8.6434 43.3819 9.56524 42.5701C12.5234 39.9697 11.1337 38.1536 10.1706 36.9841C6.34092 32.2582 4.40694 26.2763 4.7452 20.2029C5.08346 14.1295 7.66974 8.39938 12.0005 4.12803C15.7719 1.66692 20.138 0.270221 24.6376 0.0854978C29.1371 -0.0992249 33.6031 0.93489 37.5635 3.07858C41.5239 5.22227 44.8317 8.39593 47.1374 12.2642C49.4432 16.1325 50.6612 20.5518 50.6628 25.0552V24.9864Z" fill="white"/>
<path d="M14.6834 26.9676H19.7191V29.2103H11.6702V27.3391L16.6096 19.5791H11.8216V17.3364H19.6228V19.1801L14.6834 26.9676Z" fill="#0066FF"/>
<path d="M27.8507 20.735H30.0383V29.2104H27.8507V28.206C27.5234 28.6162 27.1031 28.9425 26.6245 29.1579C26.146 29.3732 25.623 29.4714 25.0989 29.4443C24.5493 29.4531 24.0043 29.3434 23.5009 29.1226C22.9976 28.9018 22.5477 28.5751 22.182 28.1647C21.4035 27.2864 20.9736 26.1533 20.9736 24.9796C20.9736 23.8058 21.4035 22.6728 22.182 21.7944C22.5464 21.3805 22.9953 21.0496 23.4985 20.8241C24.0017 20.5986 24.5475 20.4837 25.0989 20.4873C25.6225 20.4636 26.1444 20.5633 26.6224 20.7784C27.1004 20.9935 27.5212 21.318 27.8507 21.7256V20.735ZM25.4291 27.3667C25.7393 27.378 26.0484 27.3252 26.3373 27.2115C26.6261 27.0979 26.8884 26.9259 27.1077 26.7063C27.3351 26.48 27.5136 26.2093 27.6319 25.911C27.7503 25.6128 27.806 25.2934 27.7956 24.9727C27.8092 24.6537 27.7549 24.3354 27.6363 24.0389C27.5177 23.7424 27.3375 23.4745 27.1077 23.2528C26.6566 22.819 26.055 22.5767 25.4291 22.5767C24.8032 22.5767 24.2017 22.819 23.7505 23.2528C23.5298 23.4799 23.3574 23.7494 23.2439 24.045C23.1303 24.3406 23.078 24.6562 23.0901 24.9727C23.0729 25.6151 23.3103 26.2382 23.7505 26.7063C23.9708 26.9246 24.2333 27.0957 24.5219 27.2092C24.8105 27.3228 25.1191 27.3764 25.4291 27.3667Z" fill="#0066FF"/>
<path d="M32.5976 29.2101V16.8271H34.7852V29.2101H32.5976Z" fill="#0066FF"/>
<path d="M41.4032 29.4443C40.5187 29.4404 39.6549 29.1759 38.9199 28.6839C38.1849 28.1918 37.6112 27.494 37.2706 26.6777C36.93 25.8614 36.8376 24.9628 37.0048 24.0943C37.1721 23.2257 37.5917 22.4258 38.2111 21.7944C39.0667 21.0021 40.1957 20.5718 41.3616 20.5936C42.5274 20.6153 43.6396 21.0875 44.465 21.9111C45.2904 22.7348 45.7649 23.8459 45.7892 25.0117C45.8135 26.1775 45.3856 27.3074 44.5952 28.1647C44.1786 28.5845 43.6805 28.9146 43.1316 29.1346C42.5826 29.3547 41.9944 29.4601 41.4032 29.4443ZM41.4032 27.3116C41.7854 27.308 42.1609 27.2108 42.4968 27.0284C42.8327 26.8461 43.1188 26.5842 43.3301 26.2657C43.5414 25.9471 43.6714 25.5817 43.7087 25.2013C43.7461 24.8209 43.6896 24.4372 43.5444 24.0837C43.3991 23.7301 43.1694 23.4176 42.8753 23.1734C42.5813 22.9292 42.2319 22.7608 41.8577 22.6829C41.4835 22.6049 41.0959 22.6199 40.7289 22.7265C40.3618 22.833 40.0264 23.0279 39.7521 23.2941C39.3448 23.7584 39.1202 24.355 39.1202 24.9726C39.1202 25.5903 39.3448 26.1869 39.7521 26.6512C39.9678 26.868 40.2255 27.0385 40.5094 27.1521C40.7933 27.2656 41.0975 27.3199 41.4032 27.3116Z" fill="#0066FF"/>
</svg>
